<svg width="7287" height="2261" viewBox="0 0 7287 2261" fill="none" xmlns="http://www.w3.org/2000/svg">
<path d="M562.137 1580.31L0 0H291.287L726.991 1246.15H668.406L1106.02 0H1397.3L835.167 1580.31H562.137Z" fill="#2E6965"/>
<path d="M1570.89 1580.31L2162.18 160.266L2243.38 270.926H1494.05V0H2532.22L1873.07 1580.31H1570.62H1570.89Z" fill="#2E6965"/>
<path d="M2711.24 1580.31V0H3000.07V1323.01H3650.22V1580.31H2711.24Z" fill="#2E6965"/>
<path d="M3963.56 1580.31L3401.42 0H3692.71L4128.41 1246.15H4069.83L4507.44 0H4798.73L4236.59 1580.31H3963.56Z" fill="#2E6965"/>
<path d="M4961.42 1580.31V0H5995.23V279.92H5257.07V616.26H5995.23V896.18H5257.07V1300.39H5995.23V1580.31H4961.42Z" fill="#2E6965"/>
<path d="M6550.55 1580.31V279.92H6103.68V0H7286.53V279.92H6839.66V1580.31H6550.82H6550.55Z" fill="#2E6965"/>
<path d="M6249.21 1902.37V1936.33H6114.05V1902.37H6249.21ZM6153.44 1839.88H6193.52V2088.48C6193.52 2099.8 6195.16 2108.29 6198.44 2113.95C6201.84 2119.5 6206.14 2123.23 6211.35 2125.16C6216.67 2126.97 6222.27 2127.87 6228.16 2127.87C6232.57 2127.87 6236.2 2127.65 6239.03 2127.19C6241.86 2126.63 6244.12 2126.17 6245.82 2125.83L6253.97 2161.83C6251.25 2162.85 6247.46 2163.87 6242.59 2164.89C6237.72 2166.02 6231.55 2166.59 6224.08 2166.59C6212.76 2166.59 6201.67 2164.15 6190.8 2159.29C6180.05 2154.42 6171.1 2147 6163.97 2137.04C6156.95 2127.08 6153.44 2114.51 6153.44 2099.34V1839.88Z" fill="#2E6965"/>
<path d="M6027.07 2163.19V1902.37H6067.15V2163.19H6027.07ZM6047.45 1858.9C6039.64 1858.9 6032.9 1856.24 6027.24 1850.92C6021.7 1845.59 6018.92 1839.2 6018.92 1831.73C6018.92 1824.26 6021.7 1817.86 6027.24 1812.54C6032.9 1807.22 6039.64 1804.56 6047.45 1804.56C6055.26 1804.56 6061.94 1807.22 6067.49 1812.54C6073.15 1817.86 6075.98 1824.26 6075.98 1831.73C6075.98 1839.2 6073.15 1845.59 6067.49 1850.92C6061.94 1856.24 6055.26 1858.9 6047.45 1858.9Z" fill="#2E6965"/>
<path d="M5833.35 2168.63C5811.61 2168.63 5792.42 2163.14 5775.78 2152.16C5759.14 2141.06 5746.12 2125.44 5736.73 2105.29C5727.33 2085.02 5722.63 2061.08 5722.63 2033.46C5722.63 2006.06 5727.33 1982.29 5736.73 1962.14C5746.12 1941.99 5759.2 1926.42 5775.95 1915.44C5792.71 1904.46 5812.06 1898.97 5834.03 1898.97C5851.01 1898.97 5864.42 1901.8 5874.27 1907.46C5884.23 1913.01 5891.82 1919.35 5897.03 1926.48C5902.35 1933.5 5906.48 1939.27 5909.42 1943.8H5912.82V1815.43H5952.89V2163.19H5914.18V2123.12H5909.42C5906.48 2127.87 5902.29 2133.87 5896.86 2141.12C5891.42 2148.25 5883.67 2154.65 5873.59 2160.31C5863.52 2165.85 5850.1 2168.63 5833.35 2168.63ZM5838.78 2132.63C5854.86 2132.63 5868.44 2128.44 5879.54 2120.06C5890.63 2111.57 5899.06 2099.85 5904.84 2084.91C5910.61 2069.85 5913.5 2052.48 5913.5 2032.78C5913.5 2013.31 5910.67 1996.27 5905.01 1981.67C5899.35 1966.95 5890.97 1955.52 5879.87 1947.37C5868.78 1939.1 5855.08 1934.97 5838.78 1934.97C5821.8 1934.97 5807.65 1939.33 5796.33 1948.05C5785.12 1956.65 5776.69 1968.37 5771.03 1983.2C5765.48 1997.91 5762.71 2014.44 5762.71 2032.78C5762.71 2051.35 5765.54 2068.21 5771.2 2083.38C5776.97 2098.44 5785.46 2110.44 5796.67 2119.38C5807.99 2128.21 5822.03 2132.63 5838.78 2132.63Z" fill="#2E6965"/>
<path d="M5626.17 2056.55V1902.37H5666.25V2163.19H5626.17V2119.04H5623.46C5617.34 2132.29 5607.84 2143.55 5594.93 2152.83C5582.02 2162 5565.72 2166.59 5546.03 2166.59C5529.72 2166.59 5515.23 2163.02 5502.55 2155.89C5489.88 2148.64 5479.91 2137.78 5472.67 2123.29C5465.42 2108.68 5461.8 2090.29 5461.8 2068.1V1902.37H5501.88V2065.38C5501.88 2084.4 5507.2 2099.57 5517.84 2110.89C5528.59 2122.21 5542.29 2127.87 5558.93 2127.87C5568.89 2127.87 5579.02 2125.32 5589.33 2120.23C5599.74 2115.14 5608.46 2107.32 5615.48 2096.8C5622.61 2086.27 5626.17 2072.85 5626.17 2056.55Z" fill="#2E6965"/>
<path d="M5273.89 2169.3C5257.36 2169.3 5242.36 2166.19 5228.89 2159.96C5215.42 2153.62 5204.72 2144.51 5196.8 2132.63C5188.87 2120.63 5184.91 2106.14 5184.91 2089.15C5184.91 2074.21 5187.85 2062.1 5193.74 2052.82C5199.63 2043.42 5207.49 2036.06 5217.34 2030.74C5227.19 2025.42 5238.06 2021.46 5249.95 2018.85C5261.95 2016.14 5274 2013.99 5286.12 2012.4C5301.96 2010.36 5314.81 2008.84 5324.66 2007.82C5334.62 2006.68 5341.87 2004.82 5346.4 2002.21C5351.04 1999.61 5353.36 1995.08 5353.36 1988.63V1987.27C5353.36 1970.52 5348.77 1957.5 5339.61 1948.21C5330.55 1938.93 5316.79 1934.29 5298.34 1934.29C5279.21 1934.29 5264.21 1938.48 5253.34 1946.86C5242.48 1955.23 5234.83 1964.18 5230.42 1973.68L5192.38 1960.1C5199.17 1944.25 5208.23 1931.91 5219.55 1923.08C5230.98 1914.14 5243.44 1907.91 5256.91 1904.4C5270.49 1900.78 5283.85 1898.97 5296.98 1898.97C5305.36 1898.97 5314.98 1899.99 5325.85 1902.03C5336.83 1903.95 5347.42 1907.97 5357.6 1914.08C5367.91 1920.2 5376.45 1929.42 5383.25 1941.76C5390.04 1954.1 5393.43 1970.63 5393.43 1991.35V2163.19H5353.36V2127.87H5351.32C5348.6 2133.53 5344.08 2139.59 5337.74 2146.04C5331.4 2152.49 5322.96 2157.98 5312.44 2162.51C5301.91 2167.04 5289.06 2169.3 5273.89 2169.3ZM5280 2133.3C5295.85 2133.3 5309.21 2130.19 5320.08 2123.97C5331.06 2117.74 5339.32 2109.7 5344.87 2099.85C5350.53 2090 5353.36 2079.65 5353.36 2068.78V2032.1C5351.66 2034.14 5347.93 2036 5342.15 2037.7C5336.49 2039.29 5329.93 2040.7 5322.45 2041.95C5315.1 2043.08 5307.91 2044.1 5300.89 2045C5293.98 2045.8 5288.38 2046.48 5284.08 2047.04C5273.66 2048.4 5263.93 2050.61 5254.87 2053.66C5245.93 2056.61 5238.68 2061.08 5233.14 2067.08C5227.7 2072.97 5224.98 2081 5224.98 2091.19C5224.98 2105.12 5230.14 2115.64 5240.44 2122.78C5250.85 2129.8 5264.04 2133.3 5280 2133.3Z" fill="#2E6965"/>
<path d="M4997.98 2115.64L4995.27 2133.98C4993.34 2146.89 4990.4 2160.7 4986.44 2175.42C4982.59 2190.13 4978.57 2204 4974.38 2217.02C4970.19 2230.04 4966.74 2240.4 4964.02 2248.09H4933.46C4934.93 2240.85 4936.85 2231.28 4939.23 2219.4C4941.61 2207.51 4943.99 2194.21 4946.36 2179.49C4948.85 2164.89 4950.89 2149.95 4952.48 2134.66L4954.51 2115.64H4997.98Z" fill="#2E6965"/>
<path d="M4774.01 2168.62C4748.88 2168.62 4727.2 2163.08 4708.97 2151.98C4690.86 2140.78 4676.88 2125.15 4667.03 2105.12C4657.29 2084.97 4652.43 2061.53 4652.43 2034.82C4652.43 2008.1 4657.29 1984.55 4667.03 1964.18C4676.88 1943.69 4690.58 1927.72 4708.12 1916.29C4725.78 1904.74 4746.39 1898.97 4769.93 1898.97C4783.52 1898.97 4796.93 1901.23 4810.18 1905.76C4823.42 1910.29 4835.48 1917.65 4846.35 1927.84C4857.21 1937.91 4865.87 1951.27 4872.33 1967.91C4878.78 1984.55 4882.01 2005.04 4882.01 2029.38V2046.36H4680.95V2011.72H4841.25C4841.25 1997.01 4838.31 1983.87 4832.42 1972.33C4826.65 1960.78 4818.38 1951.67 4807.63 1944.99C4796.99 1938.31 4784.42 1934.97 4769.93 1934.97C4753.97 1934.97 4740.16 1938.93 4728.5 1946.86C4716.95 1954.67 4708.07 1964.85 4701.84 1977.42C4695.61 1989.99 4692.5 2003.46 4692.5 2017.84V2040.93C4692.5 2060.63 4695.9 2077.32 4702.69 2091.02C4709.59 2104.61 4719.16 2114.97 4731.39 2122.1C4743.61 2129.12 4757.82 2132.63 4774.01 2132.63C4784.54 2132.63 4794.05 2131.15 4802.54 2128.21C4811.14 2125.15 4818.55 2120.63 4824.78 2114.63C4831.01 2108.51 4835.82 2100.93 4839.21 2091.87L4877.93 2102.74C4873.86 2115.87 4867.01 2127.42 4857.38 2137.38C4847.76 2147.23 4835.87 2154.93 4821.72 2160.47C4807.57 2165.91 4791.67 2168.62 4774.01 2168.62Z" fill="#2E6965"/>
<path d="M4604.34 1960.78L4568.34 1970.97C4566.08 1964.97 4562.74 1959.14 4558.32 1953.48C4554.02 1947.7 4548.13 1942.95 4540.66 1939.21C4533.19 1935.48 4523.63 1933.61 4511.97 1933.61C4496 1933.61 4482.7 1937.29 4472.06 1944.65C4461.53 1951.89 4456.27 1961.12 4456.27 1972.33C4456.27 1982.29 4459.89 1990.16 4467.14 1995.93C4474.38 2001.7 4485.7 2006.51 4501.1 2010.36L4539.81 2019.87C4563.13 2025.53 4580.51 2034.19 4591.94 2045.85C4603.38 2057.4 4609.1 2072.29 4609.1 2090.51C4609.1 2105.46 4604.79 2118.81 4596.19 2130.59C4587.7 2142.36 4575.81 2151.64 4560.53 2158.44C4545.25 2165.23 4527.47 2168.62 4507.21 2168.62C4480.61 2168.62 4458.59 2162.85 4441.16 2151.3C4423.72 2139.76 4412.68 2122.89 4408.04 2100.7L4446.08 2091.19C4449.7 2105.23 4456.55 2115.76 4466.63 2122.78C4476.82 2129.8 4490.12 2133.3 4506.53 2133.3C4525.21 2133.3 4540.04 2129.34 4551.02 2121.42C4562.12 2113.38 4567.66 2103.76 4567.66 2092.55C4567.66 2083.49 4564.49 2075.91 4558.15 2069.8C4551.81 2063.57 4542.08 2058.93 4528.95 2055.87L4485.48 2045.68C4461.59 2040.02 4444.04 2031.25 4432.83 2019.36C4421.74 2007.36 4416.19 1992.36 4416.19 1974.36C4416.19 1959.65 4420.33 1946.63 4428.59 1935.31C4436.97 1923.99 4448.34 1915.1 4462.72 1908.65C4477.21 1902.2 4493.63 1898.97 4511.97 1898.97C4537.78 1898.97 4558.04 1904.63 4572.76 1915.95C4587.59 1927.27 4598.11 1942.21 4604.34 1960.78Z" fill="#2E6965"/>
<path d="M4310.92 2163.19V1902.37H4351V2163.19H4310.92ZM4331.3 1858.9C4323.49 1858.9 4316.75 1856.24 4311.09 1850.92C4305.55 1845.59 4302.77 1839.2 4302.77 1831.73C4302.77 1824.26 4305.55 1817.86 4311.09 1812.54C4316.75 1807.22 4323.49 1804.56 4331.3 1804.56C4339.11 1804.56 4345.79 1807.22 4351.34 1812.54C4357 1817.86 4359.83 1824.26 4359.83 1831.73C4359.83 1839.2 4357 1845.59 4351.34 1850.92C4345.79 1856.24 4339.11 1858.9 4331.3 1858.9Z" fill="#2E6965"/>
<path d="M4255.42 1902.37V1936.33H4120.25V1902.37H4255.42ZM4159.65 1839.88H4199.72V2088.48C4199.72 2099.8 4201.37 2108.29 4204.65 2113.95C4208.04 2119.5 4212.35 2123.23 4217.55 2125.16C4222.87 2126.97 4228.48 2127.87 4234.36 2127.87C4238.78 2127.87 4242.4 2127.65 4245.23 2127.19C4248.06 2126.63 4250.33 2126.17 4252.02 2125.83L4260.18 2161.83C4257.46 2162.85 4253.67 2163.87 4248.8 2164.89C4243.93 2166.02 4237.76 2166.59 4230.29 2166.59C4218.97 2166.59 4207.87 2164.15 4197.01 2159.29C4186.25 2154.42 4177.31 2147 4170.18 2137.04C4163.16 2127.08 4159.65 2114.51 4159.65 2099.34V1839.88Z" fill="#2E6965"/>
<path d="M3952.5 2163.19V1902.37H3991.22V1941.76H3993.93C3998.69 1928.86 4007.29 1918.39 4019.74 1910.35C4032.2 1902.31 4046.23 1898.29 4061.86 1898.29C4064.8 1898.29 4068.48 1898.35 4072.89 1898.46C4077.31 1898.57 4080.65 1898.74 4082.91 1898.97V1939.72C4081.55 1939.38 4078.44 1938.88 4073.57 1938.2C4068.82 1937.4 4063.78 1937.01 4058.46 1937.01C4045.78 1937.01 4034.46 1939.67 4024.5 1944.99C4014.65 1950.2 4006.84 1957.44 4001.07 1966.72C3995.4 1975.89 3992.57 1986.37 3992.57 1998.14V2163.19H3952.5Z" fill="#2E6965"/>
<path d="M3788.34 2168.62C3763.21 2168.62 3741.53 2163.08 3723.31 2151.98C3705.2 2140.78 3691.21 2125.15 3681.37 2105.12C3671.63 2084.97 3666.76 2061.53 3666.76 2034.82C3666.76 2008.1 3671.63 1984.55 3681.37 1964.18C3691.21 1943.69 3704.91 1927.72 3722.46 1916.29C3740.12 1904.74 3760.72 1898.97 3784.27 1898.97C3797.85 1898.97 3811.27 1901.23 3824.51 1905.76C3837.76 1910.29 3849.81 1917.65 3860.68 1927.84C3871.55 1937.91 3880.21 1951.27 3886.66 1967.91C3893.12 1984.55 3896.34 2005.04 3896.34 2029.38V2046.36H3695.29V2011.72H3855.59C3855.59 1997.01 3852.64 1983.87 3846.76 1972.33C3840.98 1960.78 3832.72 1951.67 3821.97 1944.99C3811.33 1938.31 3798.76 1934.97 3784.27 1934.97C3768.31 1934.97 3754.5 1938.93 3742.84 1946.86C3731.29 1954.67 3722.4 1964.85 3716.18 1977.42C3709.95 1989.99 3706.84 2003.46 3706.84 2017.84V2040.93C3706.84 2060.63 3710.23 2077.32 3717.02 2091.02C3723.93 2104.61 3733.5 2114.97 3745.72 2122.1C3757.95 2129.12 3772.16 2132.63 3788.34 2132.63C3798.87 2132.63 3808.38 2131.15 3816.87 2128.21C3825.48 2125.15 3832.89 2120.63 3839.12 2114.63C3845.34 2108.51 3850.15 2100.93 3853.55 2091.87L3892.27 2102.74C3888.19 2115.87 3881.34 2127.42 3871.72 2137.38C3862.1 2147.23 3850.21 2154.93 3836.06 2160.47C3821.91 2165.91 3806 2168.62 3788.34 2168.62Z" fill="#2E6965"/>
<path d="M3392.36 2261V1902.37H3431.07V1943.8H3435.83C3438.77 1939.27 3442.85 1933.5 3448.05 1926.48C3453.37 1919.35 3460.96 1913.01 3470.81 1907.46C3480.77 1901.8 3494.24 1898.97 3511.22 1898.97C3533.18 1898.97 3552.54 1904.46 3569.3 1915.44C3586.05 1926.42 3599.13 1941.99 3608.52 1962.14C3617.92 1982.29 3622.62 2006.06 3622.62 2033.46C3622.62 2061.08 3617.92 2085.02 3608.52 2105.29C3599.13 2125.44 3586.11 2141.06 3569.47 2152.15C3552.82 2163.13 3533.64 2168.62 3511.9 2168.62C3495.15 2168.62 3481.73 2165.85 3471.66 2160.3C3461.58 2154.64 3453.83 2148.25 3448.39 2141.12C3442.96 2133.87 3438.77 2127.87 3435.83 2123.12H3432.43V2261H3392.36ZM3431.75 2032.78C3431.75 2052.48 3434.64 2069.85 3440.41 2084.91C3446.18 2099.85 3454.62 2111.57 3465.71 2120.06C3476.81 2128.44 3490.39 2132.63 3506.47 2132.63C3523.22 2132.63 3537.2 2128.21 3548.41 2119.38C3559.73 2110.44 3568.22 2098.44 3573.88 2083.38C3579.65 2068.21 3582.54 2051.34 3582.54 2032.78C3582.54 2014.44 3579.71 1997.91 3574.05 1983.19C3568.5 1968.36 3560.07 1956.65 3548.75 1948.04C3537.54 1939.33 3523.45 1934.97 3506.47 1934.97C3490.16 1934.97 3476.47 1939.1 3465.37 1947.36C3454.28 1955.52 3445.9 1966.95 3440.24 1981.67C3434.58 1996.27 3431.75 2013.31 3431.75 2032.78Z" fill="#2E6965"/>
<path d="M3168.81 1902.37L3231.3 2009.01L3293.79 1902.37H3339.98L3255.75 2032.78L3339.98 2163.19H3293.79L3231.3 2061.99L3168.81 2163.19H3122.62L3205.49 2032.78L3122.62 1902.37H3168.81Z" fill="#2E6965"/>
<path d="M2981.73 2168.62C2956.6 2168.62 2934.92 2163.08 2916.69 2151.98C2898.58 2140.78 2884.6 2125.15 2874.75 2105.12C2865.01 2084.97 2860.14 2061.53 2860.14 2034.82C2860.14 2008.1 2865.01 1984.55 2874.75 1964.18C2884.6 1943.69 2898.29 1927.72 2915.84 1916.29C2933.5 1904.74 2954.11 1898.97 2977.65 1898.97C2991.24 1898.97 3004.65 1901.23 3017.9 1905.76C3031.14 1910.29 3043.2 1917.65 3054.07 1927.84C3064.93 1937.91 3073.59 1951.27 3080.05 1967.91C3086.5 1984.55 3089.73 2005.04 3089.73 2029.38V2046.36H2888.67V2011.72H3048.97C3048.97 1997.01 3046.03 1983.87 3040.14 1972.33C3034.37 1960.78 3026.1 1951.67 3015.35 1944.99C3004.71 1938.31 2992.14 1934.97 2977.65 1934.97C2961.69 1934.97 2947.88 1938.93 2936.22 1946.86C2924.67 1954.67 2915.79 1964.85 2909.56 1977.42C2903.33 1989.99 2900.22 2003.46 2900.22 2017.84V2040.93C2900.22 2060.63 2903.62 2077.32 2910.41 2091.02C2917.31 2104.61 2926.88 2114.97 2939.11 2122.1C2951.33 2129.12 2965.54 2132.63 2981.73 2132.63C2992.26 2132.63 3001.76 2131.15 3010.25 2128.21C3018.86 2125.15 3026.27 2120.63 3032.5 2114.63C3038.73 2108.51 3043.54 2100.93 3046.93 2091.87L3085.65 2102.74C3081.57 2115.87 3074.73 2127.42 3065.1 2137.38C3055.48 2147.23 3043.59 2154.93 3029.44 2160.47C3015.29 2165.91 2999.39 2168.62 2981.73 2168.62Z" fill="#2E6965"/>
<path d="M2673.22 2115.64L2670.5 2133.98C2668.58 2146.89 2665.63 2160.7 2661.67 2175.42C2657.82 2190.13 2653.8 2204 2649.62 2217.02C2645.43 2230.04 2641.97 2240.4 2639.26 2248.09H2608.69C2610.16 2240.85 2612.09 2231.28 2614.46 2219.4C2616.84 2207.51 2619.22 2194.21 2621.6 2179.49C2624.09 2164.89 2626.13 2149.95 2627.71 2134.66L2629.75 2115.64H2673.22Z" fill="#2E6965"/>
<path d="M2544.82 1815.43V2163.19H2504.75V1815.43H2544.82Z" fill="#2E6965"/>
<path d="M2396.07 2163.19V1902.37H2436.15V2163.19H2396.07ZM2416.45 1858.9C2408.64 1858.9 2401.9 1856.24 2396.24 1850.92C2390.7 1845.59 2387.92 1839.2 2387.92 1831.73C2387.92 1824.26 2390.7 1817.86 2396.24 1812.54C2401.9 1807.22 2408.64 1804.56 2416.45 1804.56C2424.26 1804.56 2430.94 1807.22 2436.49 1812.54C2442.15 1817.86 2444.98 1824.26 2444.98 1831.73C2444.98 1839.2 2442.15 1845.59 2436.49 1850.92C2430.94 1856.24 2424.26 1858.9 2416.45 1858.9Z" fill="#2E6965"/>
<path d="M2231.86 2168.62C2206.72 2168.62 2185.05 2163.08 2166.82 2151.98C2148.71 2140.78 2134.73 2125.15 2124.88 2105.12C2115.14 2084.97 2110.27 2061.53 2110.27 2034.82C2110.27 2008.1 2115.14 1984.55 2124.88 1964.18C2134.73 1943.69 2148.42 1927.72 2165.97 1916.29C2183.63 1904.74 2204.23 1898.97 2227.78 1898.97C2241.37 1898.97 2254.78 1901.23 2268.03 1905.76C2281.27 1910.29 2293.33 1917.65 2304.19 1927.84C2315.06 1937.91 2323.72 1951.27 2330.17 1967.91C2336.63 1984.55 2339.85 2005.04 2339.85 2029.38V2046.36H2138.8V2011.72H2299.1C2299.1 1997.01 2296.16 1983.87 2290.27 1972.33C2284.5 1960.78 2276.23 1951.67 2265.48 1944.99C2254.84 1938.31 2242.27 1934.97 2227.78 1934.97C2211.82 1934.97 2198.01 1938.93 2186.35 1946.86C2174.8 1954.67 2165.91 1964.85 2159.69 1977.42C2153.46 1989.99 2150.35 2003.46 2150.35 2017.84V2040.93C2150.35 2060.63 2153.74 2077.32 2160.54 2091.02C2167.44 2104.61 2177.01 2114.97 2189.23 2122.1C2201.46 2129.12 2215.67 2132.63 2231.86 2132.63C2242.38 2132.63 2251.89 2131.15 2260.38 2128.21C2268.99 2125.15 2276.4 2120.63 2282.63 2114.63C2288.85 2108.51 2293.67 2100.93 2297.06 2091.87L2335.78 2102.74C2331.7 2115.87 2324.85 2127.42 2315.23 2137.38C2305.61 2147.23 2293.72 2154.93 2279.57 2160.47C2265.42 2165.91 2249.52 2168.62 2231.86 2168.62Z" fill="#2E6965"/>
<path d="M2062.24 1960.78L2026.24 1970.97C2023.97 1964.97 2020.63 1959.14 2016.22 1953.48C2011.92 1947.7 2006.03 1942.95 1998.56 1939.21C1991.09 1935.48 1981.52 1933.61 1969.86 1933.61C1953.9 1933.61 1940.6 1937.29 1929.96 1944.65C1919.43 1951.89 1914.16 1961.12 1914.16 1972.33C1914.16 1982.29 1917.79 1990.16 1925.03 1995.93C1932.28 2001.7 1943.6 2006.51 1958.99 2010.36L1997.71 2019.87C2021.03 2025.53 2038.41 2034.19 2049.84 2045.85C2061.27 2057.4 2066.99 2072.29 2066.99 2090.51C2066.99 2105.46 2062.69 2118.81 2054.08 2130.59C2045.59 2142.36 2033.71 2151.64 2018.43 2158.44C2003.14 2165.23 1985.37 2168.62 1965.11 2168.62C1938.5 2168.62 1916.48 2162.85 1899.05 2151.3C1881.62 2139.76 1870.58 2122.89 1865.94 2100.7L1903.97 2091.19C1907.6 2105.23 1914.45 2115.76 1924.52 2122.78C1934.71 2129.8 1948.01 2133.3 1964.43 2133.3C1983.1 2133.3 1997.93 2129.34 2008.92 2121.42C2020.01 2113.38 2025.56 2103.76 2025.56 2092.55C2025.56 2083.49 2022.39 2075.91 2016.05 2069.8C2009.71 2063.57 1999.97 2058.93 1986.84 2055.87L1943.37 2045.68C1919.48 2040.02 1901.94 2031.25 1890.73 2019.36C1879.64 2007.36 1874.09 1992.36 1874.09 1974.36C1874.09 1959.65 1878.22 1946.63 1886.48 1935.31C1894.86 1923.99 1906.24 1915.1 1920.62 1908.65C1935.11 1902.2 1951.52 1898.97 1969.86 1898.97C1995.67 1898.97 2015.93 1904.63 2030.65 1915.95C2045.48 1927.27 2056.01 1942.21 2062.24 1960.78Z" fill="#2E6965"/>
<path d="M1642.59 2006.29V2163.19H1602.52V1902.37H1641.24V1943.12H1644.63C1650.75 1929.87 1660.03 1919.23 1672.48 1911.2C1684.93 1903.04 1701.01 1898.97 1720.71 1898.97C1738.37 1898.97 1753.82 1902.59 1767.06 1909.84C1780.31 1916.97 1790.61 1927.84 1797.97 1942.44C1805.33 1956.93 1809.01 1975.27 1809.01 1997.46V2163.19H1768.93V2000.18C1768.93 1979.68 1763.61 1963.72 1752.97 1952.29C1742.33 1940.74 1727.72 1934.97 1709.16 1934.97C1696.37 1934.97 1684.93 1937.74 1674.86 1943.29C1664.9 1948.84 1657.03 1956.93 1651.25 1967.57C1645.48 1978.21 1642.59 1991.12 1642.59 2006.29Z" fill="#2E6965"/>
<path d="M1427.94 2168.62C1404.39 2168.62 1383.73 2163.02 1365.96 2151.81C1348.3 2140.61 1334.49 2124.93 1324.52 2104.78C1314.67 2084.63 1309.75 2061.08 1309.75 2034.14C1309.75 2006.97 1314.67 1983.25 1324.52 1962.99C1334.49 1942.72 1348.3 1926.99 1365.96 1915.78C1383.73 1904.57 1404.39 1898.97 1427.94 1898.97C1451.48 1898.97 1472.09 1904.57 1489.75 1915.78C1507.52 1926.99 1521.33 1942.72 1531.18 1962.99C1541.14 1983.25 1546.12 2006.97 1546.12 2034.14C1546.12 2061.08 1541.14 2084.63 1531.18 2104.78C1521.33 2124.93 1507.52 2140.61 1489.75 2151.81C1472.09 2163.02 1451.48 2168.62 1427.94 2168.62ZM1427.94 2132.63C1445.82 2132.63 1460.54 2128.04 1472.09 2118.87C1483.63 2109.7 1492.18 2097.64 1497.73 2082.7C1503.27 2067.76 1506.05 2051.57 1506.05 2034.14C1506.05 2016.7 1503.27 2000.46 1497.73 1985.4C1492.18 1970.35 1483.63 1958.18 1472.09 1948.89C1460.54 1939.61 1445.82 1934.97 1427.94 1934.97C1410.05 1934.97 1395.33 1939.61 1383.79 1948.89C1372.24 1958.18 1363.69 1970.35 1358.15 1985.4C1352.6 2000.46 1349.82 2016.7 1349.82 2034.14C1349.82 2051.57 1352.6 2067.76 1358.15 2082.7C1363.69 2097.64 1372.24 2109.7 1383.79 2118.87C1395.33 2128.04 1410.05 2132.63 1427.94 2132.63Z" fill="#2E6965"/>
<path d="M1165.63 2168.62C1141.18 2168.62 1120.12 2162.85 1102.46 2151.3C1084.8 2139.76 1071.22 2123.85 1061.71 2103.59C1052.2 2083.32 1047.45 2060.17 1047.45 2034.14C1047.45 2007.65 1052.31 1984.27 1062.05 1964.01C1071.9 1943.63 1085.6 1927.72 1103.14 1916.29C1120.8 1904.74 1141.41 1898.97 1164.95 1898.97C1183.29 1898.97 1199.82 1902.37 1214.54 1909.16C1229.25 1915.95 1241.31 1925.46 1250.71 1937.69C1260.1 1949.91 1265.93 1964.18 1268.2 1980.48H1228.12C1225.06 1968.59 1218.27 1958.06 1207.74 1948.89C1197.33 1939.61 1183.29 1934.97 1165.63 1934.97C1150.01 1934.97 1136.31 1939.04 1124.54 1947.19C1112.88 1955.23 1103.76 1966.61 1097.2 1981.33C1090.75 1995.93 1087.52 2013.08 1087.52 2032.78C1087.52 2052.93 1090.69 2070.48 1097.03 2085.42C1103.48 2100.36 1112.54 2111.97 1124.2 2120.23C1135.97 2128.49 1149.78 2132.63 1165.63 2132.63C1176.05 2132.63 1185.5 2130.81 1193.99 2127.19C1202.48 2123.57 1209.67 2118.36 1215.56 2111.57C1221.44 2104.78 1225.63 2096.63 1228.12 2087.12H1268.2C1265.93 2102.51 1260.33 2116.38 1251.38 2128.72C1242.55 2140.95 1230.84 2150.68 1216.23 2157.93C1201.74 2165.06 1184.88 2168.62 1165.63 2168.62Z" fill="#2E6965"/>
</svg>
