<svg width="7287" height="1581" viewBox="0 0 7287 1581" fill="none" xmlns="http://www.w3.org/2000/svg">
<path d="M562.137 1580.31L0 0H291.287L726.991 1246.15H668.406L1106.02 0H1397.3L835.167 1580.31H562.137Z" fill="#F4F5F3"/>
<path d="M1570.89 1580.31L2162.18 160.266L2243.38 270.926H1494.05V0H2532.22L1873.07 1580.31H1570.62H1570.89Z" fill="#F4F5F3"/>
<path d="M2711.24 1580.31V0H3000.07V1323.01H3650.22V1580.31H2711.24Z" fill="#F4F5F3"/>
<path d="M3963.56 1580.31L3401.42 0H3692.71L4128.41 1246.15H4069.83L4507.44 0H4798.73L4236.59 1580.31H3963.56Z" fill="#F4F5F3"/>
<path d="M4961.42 1580.31V0H5995.23V279.92H5257.07V616.26H5995.23V896.18H5257.07V1300.39H5995.23V1580.31H4961.42Z" fill="#F4F5F3"/>
<path d="M6550.55 1580.31V279.92H6103.68V0H7286.53V279.92H6839.66V1580.31H6550.82H6550.55Z" fill="#F4F5F3"/>
</svg>
