<?xml version="1.0" encoding="UTF-8"?>
<svg id="Calque_1" data-name="Calque 1" xmlns="http://www.w3.org/2000/svg" viewBox="0 0 7287 1581">
  <defs>
    <style>
      .cls-1 {
        fill: #fff;
      }
    </style>
  </defs>
  <path class="cls-1" d="M562.14,1580.31L0,0h291.29l435.7,1246.15h-58.59L1106.02,0h291.28l-562.13,1580.31h-273.03Z"/>
  <path class="cls-1" d="M1570.89,1580.31L2162.18,160.27l81.2,110.66h-749.33V0h1038.17l-659.15,1580.31h-302.45.27Z"/>
  <path class="cls-1" d="M2711.24,1580.31V0h288.83v1323.01h650.15v257.3h-938.98Z"/>
  <path class="cls-1" d="M3963.56,1580.31L3401.42,0h291.29l435.7,1246.15h-58.58L4507.44,0h291.29l-562.14,1580.31h-273.03Z"/>
  <path class="cls-1" d="M4961.42,1580.31V0h1033.81v279.92h-738.16v336.34h738.16v279.92h-738.16v404.21h738.16v279.92h-1033.81Z"/>
  <path class="cls-1" d="M6550.55,1580.31V279.92h-446.88V0h1182.86v279.92h-446.88v1300.39h-289.1Z"/>
</svg>